<svg xmlns="http://www.w3.org/2000/svg" xmlns:xlink="http://www.w3.org/1999/xlink" contentStyleType="text/css" data-diagram-type="SEQUENCE" height="698px" preserveAspectRatio="none" style="width:1430px;height:698px;background:#FFFFFF;" version="1.1" viewBox="0 0 1430 698" width="1430px" zoomAndPan="magnify"><title>Sequ&#234;ncia de Execu&#231;&#227;o - Pipeline de Machine Learning para Recrutamento</title><defs/><g><text fill="#000000" font-family="sans-serif" font-size="14" font-weight="bold" lengthAdjust="spacing" textLength="590.8301" x="415.615" y="27.9951">Sequ&#234;ncia de Execu&#231;&#227;o - Pipeline de Machine Learning para Recrutamento</text><g><title>Usu&#225;rio ou API Client</title><rect fill="#000000" fill-opacity="0.00000" height="498.9922" width="8" x="77.3359" y="118.5938"/><line style="stroke:#181818;stroke-width:0.5;stroke-dasharray:5.0,5.0;" x1="81" x2="81" y1="118.5938" y2="617.5859"/></g><g><title>Banco de dados</title><rect fill="#000000" fill-opacity="0.00000" height="498.9922" width="8" x="249.6362" y="118.5938"/><line style="stroke:#181818;stroke-width:0.5;stroke-dasharray:5.0,5.0;" x1="252.6704" x2="252.6704" y1="118.5938" y2="617.5859"/></g><g><title>Pr&#233;-processamento</title><rect fill="#000000" fill-opacity="0.00000" height="498.9922" width="8" x="428.5698" y="118.5938"/><line style="stroke:#181818;stroke-width:0.5;stroke-dasharray:5.0,5.0;" x1="431.7061" x2="431.7061" y1="118.5938" y2="617.5859"/></g><g><title>Feature Engineering</title><rect fill="#000000" fill-opacity="0.00000" height="498.9922" width="8" x="615.0127" y="118.5938"/><line style="stroke:#181818;stroke-width:0.5;stroke-dasharray:5.0,5.0;" x1="618.7993" x2="618.7993" y1="118.5938" y2="617.5859"/></g><g><title>Treinamento do Modelo</title><rect fill="#000000" fill-opacity="0.00000" height="498.9922" width="8" x="905.3096" y="118.5938"/><line style="stroke:#181818;stroke-width:0.5;stroke-dasharray:5.0,5.0;" x1="909.1128" x2="909.1128" y1="118.5938" y2="617.5859"/></g><g><title>Serializa&#231;&#227;o</title><rect fill="#000000" fill-opacity="0.00000" height="498.9922" width="8" x="1055.1646" y="118.5938"/><line style="stroke:#181818;stroke-width:0.5;stroke-dasharray:5.0,5.0;" x1="1059.0278" x2="1059.0278" y1="118.5938" y2="617.5859"/></g><g><title>API /predict</title><rect fill="#000000" fill-opacity="0.00000" height="498.9922" width="8" x="1161.5684" y="118.5938"/><line style="stroke:#181818;stroke-width:0.5;stroke-dasharray:5.0,5.0;" x1="1165.3013" x2="1165.3013" y1="118.5938" y2="617.5859"/></g><g><title>Modelo Treinado</title><rect fill="#000000" fill-opacity="0.00000" height="498.9922" width="8" x="1348.6777" y="118.5938"/><line style="stroke:#181818;stroke-width:0.5;stroke-dasharray:5.0,5.0;" x1="1352.2954" x2="1352.2954" y1="118.5938" y2="617.5859"/></g><g class="participant participant-head" data-participant="Client"><text fill="#000000" font-family="sans-serif" font-size="14" lengthAdjust="spacing" textLength="146.6719" x="5" y="115.292">Usu&#225;rio ou API Client</text><ellipse cx="81.3359" cy="50.7969" fill="#E2E2F0" rx="8" ry="8" style="stroke:#181818;stroke-width:0.5;"/><path d="M81.3359,58.7969 L81.3359,85.7969 M68.3359,66.7969 L94.3359,66.7969 M81.3359,85.7969 L68.3359,100.7969 M81.3359,85.7969 L94.3359,100.7969" fill="none" style="stroke:#181818;stroke-width:0.5;"/></g><g class="participant participant-tail" data-participant="Client"><text fill="#000000" font-family="sans-serif" font-size="14" lengthAdjust="spacing" textLength="146.6719" x="5" y="629.5811">Usu&#225;rio ou API Client</text><ellipse cx="81.3359" cy="641.3828" fill="#E2E2F0" rx="8" ry="8" style="stroke:#181818;stroke-width:0.5;"/><path d="M81.3359,649.3828 L81.3359,676.3828 M68.3359,657.3828 L94.3359,657.3828 M81.3359,676.3828 L68.3359,691.3828 M81.3359,676.3828 L94.3359,691.3828" fill="none" style="stroke:#181818;stroke-width:0.5;"/></g><g class="participant participant-head" data-participant="Data"><rect fill="#E2E2F0" height="30.2969" rx="2.5" ry="2.5" style="stroke:#181818;stroke-width:0.5;" width="125.9316" x="190.6704" y="87.2969"/><text fill="#000000" font-family="sans-serif" font-size="14" lengthAdjust="spacing" textLength="111.9316" x="197.6704" y="107.292">Banco de dados</text></g><g class="participant participant-tail" data-participant="Data"><rect fill="#E2E2F0" height="30.2969" rx="2.5" ry="2.5" style="stroke:#181818;stroke-width:0.5;" width="125.9316" x="190.6704" y="616.5859"/><text fill="#000000" font-family="sans-serif" font-size="14" lengthAdjust="spacing" textLength="111.9316" x="197.6704" y="636.5811">Banco de dados</text></g><g class="participant participant-head" data-participant="Preproc"><rect fill="#E2E2F0" height="30.2969" rx="2.5" ry="2.5" style="stroke:#181818;stroke-width:0.5;" width="149.7275" x="357.7061" y="87.2969"/><text fill="#000000" font-family="sans-serif" font-size="14" lengthAdjust="spacing" textLength="135.7275" x="364.7061" y="107.292">Pr&#233;-processamento</text></g><g class="participant participant-tail" data-participant="Preproc"><rect fill="#E2E2F0" height="30.2969" rx="2.5" ry="2.5" style="stroke:#181818;stroke-width:0.5;" width="149.7275" x="357.7061" y="616.5859"/><text fill="#000000" font-family="sans-serif" font-size="14" lengthAdjust="spacing" textLength="135.7275" x="364.7061" y="636.5811">Pr&#233;-processamento</text></g><g class="participant participant-head" data-participant="FE"><rect fill="#E2E2F0" height="30.2969" rx="2.5" ry="2.5" style="stroke:#181818;stroke-width:0.5;" width="156.4268" x="540.7993" y="87.2969"/><text fill="#000000" font-family="sans-serif" font-size="14" lengthAdjust="spacing" textLength="142.4268" x="547.7993" y="107.292">Feature Engineering</text></g><g class="participant participant-tail" data-participant="FE"><rect fill="#E2E2F0" height="30.2969" rx="2.5" ry="2.5" style="stroke:#181818;stroke-width:0.5;" width="156.4268" x="540.7993" y="616.5859"/><text fill="#000000" font-family="sans-serif" font-size="14" lengthAdjust="spacing" textLength="142.4268" x="547.7993" y="636.5811">Feature Engineering</text></g><g class="participant participant-head" data-participant="Train"><rect fill="#E2E2F0" height="30.2969" rx="2.5" ry="2.5" style="stroke:#181818;stroke-width:0.5;" width="180.3936" x="819.1128" y="87.2969"/><text fill="#000000" font-family="sans-serif" font-size="14" lengthAdjust="spacing" textLength="166.3936" x="826.1128" y="107.292">Treinamento do Modelo</text></g><g class="participant participant-tail" data-participant="Train"><rect fill="#E2E2F0" height="30.2969" rx="2.5" ry="2.5" style="stroke:#181818;stroke-width:0.5;" width="180.3936" x="819.1128" y="616.5859"/><text fill="#000000" font-family="sans-serif" font-size="14" lengthAdjust="spacing" textLength="166.3936" x="826.1128" y="636.5811">Treinamento do Modelo</text></g><g class="participant participant-head" data-participant="Save"><rect fill="#E2E2F0" height="30.2969" rx="2.5" ry="2.5" style="stroke:#181818;stroke-width:0.5;" width="98.2734" x="1010.0278" y="87.2969"/><text fill="#000000" font-family="sans-serif" font-size="14" lengthAdjust="spacing" textLength="84.2734" x="1017.0278" y="107.292">Serializa&#231;&#227;o</text></g><g class="participant participant-tail" data-participant="Save"><rect fill="#E2E2F0" height="30.2969" rx="2.5" ry="2.5" style="stroke:#181818;stroke-width:0.5;" width="98.2734" x="1010.0278" y="616.5859"/><text fill="#000000" font-family="sans-serif" font-size="14" lengthAdjust="spacing" textLength="84.2734" x="1017.0278" y="636.5811">Serializa&#231;&#227;o</text></g><g class="participant participant-head" data-participant="API"><rect fill="#E2E2F0" height="30.2969" rx="2.5" ry="2.5" style="stroke:#181818;stroke-width:0.5;" width="94.5342" x="1118.3013" y="87.2969"/><text fill="#000000" font-family="sans-serif" font-size="14" lengthAdjust="spacing" textLength="80.5342" x="1125.3013" y="107.292">API /predict</text></g><g class="participant participant-tail" data-participant="API"><rect fill="#E2E2F0" height="30.2969" rx="2.5" ry="2.5" style="stroke:#181818;stroke-width:0.5;" width="94.5342" x="1118.3013" y="616.5859"/><text fill="#000000" font-family="sans-serif" font-size="14" lengthAdjust="spacing" textLength="80.5342" x="1125.3013" y="636.5811">API /predict</text></g><g class="participant participant-head" data-participant="Model"><rect fill="#E2E2F0" height="30.2969" rx="2.5" ry="2.5" style="stroke:#181818;stroke-width:0.5;" width="130.7646" x="1287.2954" y="87.2969"/><text fill="#000000" font-family="sans-serif" font-size="14" lengthAdjust="spacing" textLength="116.7646" x="1294.2954" y="107.292">Modelo Treinado</text></g><g class="participant participant-tail" data-participant="Model"><rect fill="#E2E2F0" height="30.2969" rx="2.5" ry="2.5" style="stroke:#181818;stroke-width:0.5;" width="130.7646" x="1287.2954" y="616.5859"/><text fill="#000000" font-family="sans-serif" font-size="14" lengthAdjust="spacing" textLength="116.7646" x="1294.2954" y="636.5811">Modelo Treinado</text></g><rect fill="#EEEEEE" height="3" style="stroke:#EEEEEE;stroke-width:1;" width="1423.0601" x="0" y="149.1602"/><line style="stroke:#000000;stroke-width:1;" x1="0" x2="1423.0601" y1="149.1602" y2="149.1602"/><line style="stroke:#000000;stroke-width:1;" x1="0" x2="1423.0601" y1="152.1602" y2="152.1602"/><rect fill="#EEEEEE" height="23.1328" style="stroke:#000000;stroke-width:2;" width="198.1328" x="612.4636" y="138.5938"/><text fill="#000000" font-family="sans-serif" font-size="13" font-weight="bold" lengthAdjust="spacing" textLength="179.6069" x="618.4636" y="154.6606">Pipeline de Treinamento</text><g class="message" data-participant-1="Client" data-participant-2="Data"><polygon fill="#181818" points="241.6362,188.8594,251.6362,192.8594,241.6362,196.8594,245.6362,192.8594" style="stroke:#181818;stroke-width:1;"/><line style="stroke:#181818;stroke-width:1;" x1="81.3359" x2="247.6362" y1="192.8594" y2="192.8594"/><text fill="#000000" font-family="sans-serif" font-size="13" lengthAdjust="spacing" textLength="148.3003" x="88.3359" y="187.7935">Fornece arquivos JSON</text></g><g class="message" data-participant-1="Data" data-participant-2="Preproc"><polygon fill="#181818" points="420.5698,217.9922,430.5698,221.9922,420.5698,225.9922,424.5698,221.9922" style="stroke:#181818;stroke-width:1;"/><line style="stroke:#181818;stroke-width:1;" x1="253.6362" x2="426.5698" y1="221.9922" y2="221.9922"/><text fill="#000000" font-family="sans-serif" font-size="13" lengthAdjust="spacing" textLength="154.9336" x="260.6362" y="216.9263">Carrega e unifica dados</text></g><g class="message" data-participant-1="Preproc" data-participant-2="FE"><polygon fill="#181818" points="607.0127,247.125,617.0127,251.125,607.0127,255.125,611.0127,251.125" style="stroke:#181818;stroke-width:1;"/><line style="stroke:#181818;stroke-width:1;" x1="432.5698" x2="613.0127" y1="251.125" y2="251.125"/><text fill="#000000" font-family="sans-serif" font-size="13" lengthAdjust="spacing" textLength="162.4429" x="439.5698" y="246.0591">Gera vari&#225;veis (features)</text></g><g class="message" data-participant-1="FE" data-participant-2="Train"><polygon fill="#181818" points="897.3096,276.2578,907.3096,280.2578,897.3096,284.2578,901.3096,280.2578" style="stroke:#181818;stroke-width:1;"/><line style="stroke:#181818;stroke-width:1;" x1="619.0127" x2="903.3096" y1="280.2578" y2="280.2578"/><text fill="#000000" font-family="sans-serif" font-size="13" lengthAdjust="spacing" textLength="266.2969" x="626.0127" y="275.1919">Treina o modelo com dados processados</text></g><g class="message" data-participant-1="Train" data-participant-2="Save"><polygon fill="#181818" points="1047.1646,305.3906,1057.1646,309.3906,1047.1646,313.3906,1051.1646,309.3906" style="stroke:#181818;stroke-width:1;"/><line style="stroke:#181818;stroke-width:1;" x1="909.3096" x2="1053.1646" y1="309.3906" y2="309.3906"/><text fill="#000000" font-family="sans-serif" font-size="13" lengthAdjust="spacing" textLength="125.855" x="916.3096" y="304.3247">Salva modelo (.pkl)</text></g><g class="message" data-participant-1="Save" data-participant-2="Model"><polygon fill="#181818" points="1340.6777,334.5234,1350.6777,338.5234,1340.6777,342.5234,1344.6777,338.5234" style="stroke:#181818;stroke-width:1;"/><line style="stroke:#181818;stroke-width:1;" x1="1059.1646" x2="1346.6777" y1="338.5234" y2="338.5234"/><text fill="#000000" font-family="sans-serif" font-size="13" lengthAdjust="spacing" textLength="231.5688" x="1066.1646" y="333.4575">Atualiza vers&#227;o do modelo treinado</text></g><rect fill="#EEEEEE" height="3" style="stroke:#EEEEEE;stroke-width:1;" width="1423.0601" x="0" y="367.0898"/><line style="stroke:#000000;stroke-width:1;" x1="0" x2="1423.0601" y1="367.0898" y2="367.0898"/><line style="stroke:#000000;stroke-width:1;" x1="0" x2="1423.0601" y1="370.0898" y2="370.0898"/><rect fill="#EEEEEE" height="23.1328" style="stroke:#000000;stroke-width:2;" width="138.5347" x="642.2627" y="356.5234"/><text fill="#000000" font-family="sans-serif" font-size="13" font-weight="bold" lengthAdjust="spacing" textLength="120.0088" x="648.2627" y="372.5903">Execu&#231;&#227;o da API</text><g class="message" data-participant-1="Client" data-participant-2="API"><polygon fill="#181818" points="1153.5684,406.7891,1163.5684,410.7891,1153.5684,414.7891,1157.5684,410.7891" style="stroke:#181818;stroke-width:1;"/><line style="stroke:#181818;stroke-width:1;" x1="81.3359" x2="1159.5684" y1="410.7891" y2="410.7891"/><text fill="#000000" font-family="sans-serif" font-size="13" lengthAdjust="spacing" textLength="156.6729" x="88.3359" y="405.7231">Envia dados via /predict</text></g><g class="message" data-participant-1="API" data-participant-2="Model"><polygon fill="#181818" points="1340.6777,435.9219,1350.6777,439.9219,1340.6777,443.9219,1344.6777,439.9219" style="stroke:#181818;stroke-width:1;"/><line style="stroke:#181818;stroke-width:1;" x1="1165.5684" x2="1346.6777" y1="439.9219" y2="439.9219"/><text fill="#000000" font-family="sans-serif" font-size="13" lengthAdjust="spacing" textLength="163.1094" x="1172.5684" y="434.856">Carrega modelo treinado</text></g><g class="message" data-participant-1="Model" data-participant-2="API"><polygon fill="#181818" points="1176.5684,449.9219,1166.5684,453.9219,1176.5684,457.9219,1172.5684,453.9219" style="stroke:#181818;stroke-width:1;"/><line style="stroke:#181818;stroke-width:1;stroke-dasharray:2.0,2.0;" x1="1170.5684" x2="1351.6777" y1="453.9219" y2="453.9219"/></g><g class="message" data-participant-1="API" data-participant-2="FE"><polygon fill="#181818" points="630.0127,479.0547,620.0127,483.0547,630.0127,487.0547,626.0127,483.0547" style="stroke:#181818;stroke-width:1;"/><line style="stroke:#181818;stroke-width:1;" x1="624.0127" x2="1164.5684" y1="483.0547" y2="483.0547"/><text fill="#000000" font-family="sans-serif" font-size="13" lengthAdjust="spacing" textLength="283.3022" x="636.0127" y="477.9888">Aplica transforma&#231;&#245;es nos dados recebidos</text></g><g class="message" data-participant-1="FE" data-participant-2="API"><polygon fill="#181818" points="1153.5684,508.1875,1163.5684,512.1875,1153.5684,516.1875,1157.5684,512.1875" style="stroke:#181818;stroke-width:1;"/><line style="stroke:#181818;stroke-width:1;" x1="619.0127" x2="1159.5684" y1="512.1875" y2="512.1875"/><text fill="#000000" font-family="sans-serif" font-size="13" lengthAdjust="spacing" textLength="174.5605" x="626.0127" y="507.1216">Retorna dados vetorizados</text></g><g class="message" data-participant-1="API" data-participant-2="Model"><polygon fill="#181818" points="1340.6777,537.3203,1350.6777,541.3203,1340.6777,545.3203,1344.6777,541.3203" style="stroke:#181818;stroke-width:1;"/><line style="stroke:#181818;stroke-width:1;" x1="1165.5684" x2="1346.6777" y1="541.3203" y2="541.3203"/><text fill="#000000" font-family="sans-serif" font-size="13" lengthAdjust="spacing" textLength="82.9258" x="1172.5684" y="536.2544">Faz predi&#231;&#227;o</text></g><g class="message" data-participant-1="Model" data-participant-2="API"><polygon fill="#181818" points="1176.5684,566.4531,1166.5684,570.4531,1176.5684,574.4531,1172.5684,570.4531" style="stroke:#181818;stroke-width:1;"/><line style="stroke:#181818;stroke-width:1;" x1="1170.5684" x2="1351.6777" y1="570.4531" y2="570.4531"/><text fill="#000000" font-family="sans-serif" font-size="13" lengthAdjust="spacing" textLength="117" x="1182.5684" y="565.3872">Retorna resultado</text></g><g class="message" data-participant-1="API" data-participant-2="Client"><polygon fill="#181818" points="92.3359,595.5859,82.3359,599.5859,92.3359,603.5859,88.3359,599.5859" style="stroke:#181818;stroke-width:1;"/><line style="stroke:#181818;stroke-width:1;" x1="86.3359" x2="1164.5684" y1="599.5859" y2="599.5859"/><text fill="#000000" font-family="sans-serif" font-size="13" lengthAdjust="spacing" textLength="170.022" x="98.3359" y="594.52">Retorna resposta (insight)</text></g><!--SRC=[NPF1Rjim38RlUWeYf-IGzLuW0x8k6LgiMz1q3y39J4hCaLnADeQ-JR73iDtt17wnKP9TnBd9uaVovqyvSgm9zlJSzd-TPOIAOFEJRDl_xdzvMCAE6whPKGhSetrAny-4ujWTeK51U20hRSGJkUYDGHkzmEnRQFjNOG- -XVNk5cvgrlWCC0n7excHBJVe8im-eBC-jQYmyY5Z7p7Y5Df9_sVPYBSKGccNmPrGkfooMyBOYixYZggOHDLcUBkPSez2x4eng3pS-uhgKlPHaDqKtciThFa5ipcPscD7KoXDUzK8LMpBl7en9KeJAAshKYVV6RDQJGm_LxTQcU8SBDzdS-0QjbuSMGAKvvOx7-1k__MBoK651cEKkq4HEY8Gj8uFRB7uR4P2uUr6kK-a- -nGk7_jY0FC3yN6i30QLogRec0H1XvEPHRhJwKaZFj9vGkjQSabpTfZtU6OCd_N_AWN9eSKoGOeiuvjjXWwaf2UOFNM90w6PPlE7cc5-ObD34eNrxhzZeTP8Pt6lPWKFciw-dFPgCINfTwOb9rQDtMoCGgwSF1oIa_Y7mLmsgdq4rtCTqus5EkAeWVItyEzQKfVEcoYBYHjyGMosZpZgEIoZAwchMEIEgGF3ao8nWTz47DsWOzFSV4V]--></g></svg>